<?xml version="1.0" encoding="UTF-8" standalone="no"?>
<!DOCTYPE svg PUBLIC "-//W3C//DTD SVG 1.1//EN" "http://www.w3.org/Graphics/SVG/1.1/DTD/svg11.dtd">
<svg width="100%" height="100%" viewBox="0 0 2232 651" version="1.1" xmlns="http://www.w3.org/2000/svg" xmlns:xlink="http://www.w3.org/1999/xlink" xml:space="preserve" xmlns:serif="http://www.serif.com/" style="fill-rule:evenodd;clip-rule:evenodd;stroke-linejoin:round;stroke-miterlimit:2;">
    <g transform="matrix(1,0,0,1,20.0624,-556.329)">
        <g id="L">
            <g transform="matrix(4.16667,0,0,4.16667,-4.54747e-13,-7.95808e-13)">
                <path d="M351.333,249.884L330.013,237.493L329.991,230.037L351.312,242.427L351.333,249.884Z" style="fill:rgb(82,134,197);fill-rule:nonzero;"/>
            </g>
            <g transform="matrix(4.16667,0,0,4.16667,-4.54747e-13,-7.95808e-13)">
                <path d="M314.97,270.878L293.648,258.488L330.013,237.493L351.333,249.884L314.97,270.878Z" style="fill:rgb(103,152,209);fill-rule:nonzero;"/>
            </g>
            <g transform="matrix(4.16667,0,0,4.16667,-4.54747e-13,-7.95808e-13)">
                <path d="M321.537,259.617L300.219,247.227L329.991,230.037L351.312,242.427L321.537,259.617Z" style="fill:rgb(103,152,209);fill-rule:nonzero;"/>
            </g>
            <g transform="matrix(4.16667,0,0,4.16667,-4.54747e-13,-7.95808e-13)">
                <path d="M322.394,258.137L301.073,245.746L330.847,228.556L352.166,240.947L322.394,258.137Z" style="fill:rgb(103,152,209);fill-rule:nonzero;"/>
            </g>
            <g transform="matrix(4.16667,0,0,4.16667,-4.54747e-13,-7.95808e-13)">
                <path d="M321.537,259.617L300.219,247.227L300.122,213.014L321.44,225.404L321.537,259.617Z" style="fill:rgb(82,134,197);fill-rule:nonzero;"/>
            </g>
            <g transform="matrix(4.16667,0,0,4.16667,-4.54747e-13,-7.95808e-13)">
                <path d="M314.97,270.878L293.648,258.488L293.53,216.819L314.852,229.209L314.97,270.878Z" style="fill:rgb(82,134,197);fill-rule:nonzero;"/>
            </g>
            <g transform="matrix(4.16667,0,0,4.16667,-4.54747e-13,-7.95808e-13)">
                <path d="M321.44,225.404L321.537,259.617L351.312,242.427L351.333,249.884L314.97,270.878L314.852,229.209L321.44,225.404Z" style="fill:white;fill-rule:nonzero;"/>
            </g>
            <g transform="matrix(4.16667,0,0,4.16667,-4.54747e-13,-7.95808e-13)">
                <path d="M314.852,229.209L293.53,216.819L300.122,213.014L321.44,225.404L314.852,229.209Z" style="fill:rgb(103,152,209);fill-rule:nonzero;"/>
            </g>
            <g transform="matrix(4.16667,0,0,4.16667,-4.54747e-13,-7.95808e-13)">
                <path d="M313.991,228.718L292.67,216.329L300.976,211.534L322.297,223.923L313.991,228.718Z" style="fill:rgb(103,152,209);fill-rule:nonzero;"/>
            </g>
            <g transform="matrix(4.16667,0,0,4.16667,-4.54747e-13,-7.95808e-13)">
                <path d="M314.114,272.358L292.795,259.969L292.67,216.329L313.991,228.718L314.114,272.358Z" style="fill:rgb(82,134,197);fill-rule:nonzero;"/>
            </g>
            <g transform="matrix(4.16667,0,0,4.16667,-4.54747e-13,-7.95808e-13)">
                <path d="M351.333,249.884L351.312,242.427L321.537,259.617L321.44,225.404L314.852,229.209L314.97,270.878L351.333,249.884ZM322.394,258.137L352.166,240.947L352.193,250.374L314.114,272.358L313.991,228.718L322.297,223.923L322.394,258.137Z" style="fill:white;fill-rule:nonzero;"/>
            </g>
        </g>
    </g>
    <g transform="matrix(1,0,0,1,216.354,-228.546)">
        <g id="A">
            <g transform="matrix(4.16667,0,0,4.16667,-4.54747e-13,-7.95808e-13)">
                <path d="M119.169,114.196L97.849,101.806L104.431,98.006L125.75,110.396L119.169,114.196Z" style="fill:rgb(103,152,209);fill-rule:nonzero;"/>
            </g>
            <g transform="matrix(4.16667,0,0,4.16667,-4.54747e-13,-7.95808e-13)">
                <path d="M125.75,110.396L104.431,98.006L104.337,64.894L125.658,77.284L125.75,110.396Z" style="fill:rgb(82,134,197);fill-rule:nonzero;"/>
            </g>
            <g transform="matrix(4.16667,0,0,4.16667,-4.54747e-13,-7.95808e-13)">
                <path d="M119.169,114.196L97.849,101.806L97.8,84.815L119.121,97.206L119.169,114.196Z" style="fill:rgb(82,134,197);fill-rule:nonzero;"/>
            </g>
            <g transform="matrix(4.16667,0,0,4.16667,-4.54747e-13,-7.95808e-13)">
                <path d="M118.314,115.676L96.993,103.286L96.945,86.296L118.266,98.686L118.314,115.676Z" style="fill:rgb(82,134,197);fill-rule:nonzero;"/>
            </g>
            <g transform="matrix(4.16667,0,0,4.16667,-4.54747e-13,-7.95808e-13)">
                <path d="M119.099,89.632L97.778,77.242L97.755,68.695L119.075,81.083L119.099,89.632Z" style="fill:rgb(82,134,197);fill-rule:nonzero;"/>
            </g>
            <g transform="matrix(4.16667,0,0,4.16667,-4.54747e-13,-7.95808e-13)">
                <path d="M119.075,81.083L97.755,68.695L104.337,64.894L125.658,77.284L119.075,81.083Z" style="fill:rgb(103,152,209);fill-rule:nonzero;"/>
            </g>
            <g transform="matrix(4.16667,0,0,4.16667,-4.54747e-13,-7.95808e-13)">
                <path d="M89.395,131.385L68.074,118.995L74.656,115.195L95.977,127.585L89.395,131.385Z" style="fill:rgb(103,152,209);fill-rule:nonzero;"/>
            </g>
            <g transform="matrix(4.16667,0,0,4.16667,-4.54747e-13,-7.95808e-13)">
                <path d="M118.239,89.142L96.918,76.752L96.897,69.19L118.217,81.579L118.239,89.142Z" style="fill:rgb(82,134,197);fill-rule:nonzero;"/>
            </g>
            <g transform="matrix(4.16667,0,0,4.16667,-4.54747e-13,-7.95808e-13)">
                <path d="M119.073,80.098L97.752,67.709L105.191,63.414L126.511,75.804L119.073,80.098Z" style="fill:rgb(103,152,209);fill-rule:nonzero;"/>
            </g>
            <g transform="matrix(4.16667,0,0,4.16667,-4.54747e-13,-7.95808e-13)">
                <path d="M118.214,80.593L96.895,68.204L96.872,60.632L118.194,73.022L118.214,80.593Z" style="fill:rgb(82,134,197);fill-rule:nonzero;"/>
            </g>
            <g transform="matrix(4.16667,0,0,4.16667,-4.54747e-13,-7.95808e-13)">
                <path d="M95.977,127.585L74.656,115.195L74.609,98.206L95.928,110.595L95.977,127.585Z" style="fill:rgb(82,134,197);fill-rule:nonzero;"/>
            </g>
            <g transform="matrix(4.16667,0,0,4.16667,-4.54747e-13,-7.95808e-13)">
                <path d="M95.928,110.595L74.609,98.206L97.8,84.815L119.121,97.206L95.928,110.595Z" style="fill:rgb(103,152,209);fill-rule:nonzero;"/>
            </g>
            <g transform="matrix(4.16667,0,0,4.16667,-4.54747e-13,-7.95808e-13)">
                <path d="M95.907,103.021L74.586,90.633L97.778,77.242L119.099,89.632L95.907,103.021Z" style="fill:rgb(103,152,209);fill-rule:nonzero;"/>
            </g>
            <g transform="matrix(4.16667,0,0,4.16667,-4.54747e-13,-7.95808e-13)">
                <path d="M96.762,101.542L75.441,89.152L96.918,76.752L118.239,89.142L96.762,101.542Z" style="fill:rgb(103,152,209);fill-rule:nonzero;"/>
            </g>
            <g transform="matrix(4.16667,0,0,4.16667,-4.54747e-13,-7.95808e-13)">
                <path d="M95.907,103.021L74.586,90.633L74.563,82.083L95.883,94.474L95.907,103.021Z" style="fill:rgb(82,134,197);fill-rule:nonzero;"/>
            </g>
            <g transform="matrix(4.16667,0,0,4.16667,-4.54747e-13,-7.95808e-13)">
                <path d="M96.736,92.994L75.418,80.603L96.895,68.204L118.214,80.593L96.736,92.994Z" style="fill:rgb(103,152,209);fill-rule:nonzero;"/>
            </g>
            <g transform="matrix(4.16667,0,0,4.16667,-4.54747e-13,-7.95808e-13)">
                <path d="M119.075,81.083L125.658,77.284L125.75,110.396L119.169,114.196L119.121,97.206L95.928,110.595L95.977,127.585L89.395,131.385L89.301,98.273L95.883,94.474L95.907,103.021L119.099,89.632L119.075,81.083Z" style="fill:white;fill-rule:nonzero;"/>
            </g>
            <g transform="matrix(4.16667,0,0,4.16667,-4.54747e-13,-7.95808e-13)">
                <path d="M89.395,131.385L68.074,118.995L67.981,85.884L89.301,98.273L89.395,131.385Z" style="fill:rgb(82,134,197);fill-rule:nonzero;"/>
            </g>
            <g transform="matrix(4.16667,0,0,4.16667,-4.54747e-13,-7.95808e-13)">
                <path d="M89.301,98.273L67.981,85.884L74.563,82.083L95.883,94.474L89.301,98.273Z" style="fill:rgb(103,152,209);fill-rule:nonzero;"/>
            </g>
            <g transform="matrix(4.16667,0,0,4.16667,-4.54747e-13,-7.95808e-13)">
                <path d="M96.717,85.422L75.396,73.031L96.872,60.632L118.194,73.022L96.717,85.422Z" style="fill:rgb(103,152,209);fill-rule:nonzero;"/>
            </g>
            <g transform="matrix(4.16667,0,0,4.16667,-4.54747e-13,-7.95808e-13)">
                <path d="M96.736,92.994L75.418,80.603L75.396,73.031L96.717,85.422L96.736,92.994Z" style="fill:rgb(82,134,197);fill-rule:nonzero;"/>
            </g>
            <g transform="matrix(4.16667,0,0,4.16667,-4.54747e-13,-7.95808e-13)">
                <path d="M118.194,73.022L118.214,80.593L96.736,92.994L96.717,85.422L118.194,73.022Z" style="fill:white;fill-rule:nonzero;"/>
            </g>
            <g transform="matrix(4.16667,0,0,4.16667,-4.54747e-13,-7.95808e-13)">
                <path d="M88.539,132.866L67.22,120.476L67.119,85.393L88.44,97.785L88.539,132.866Z" style="fill:rgb(82,134,197);fill-rule:nonzero;"/>
            </g>
            <g transform="matrix(4.16667,0,0,4.16667,-4.54747e-13,-7.95808e-13)">
                <path d="M88.44,97.785L67.119,85.393L74.56,81.098L95.88,93.489L88.44,97.785Z" style="fill:rgb(103,152,209);fill-rule:nonzero;"/>
            </g>
            <g transform="matrix(4.16667,0,0,4.16667,-4.54747e-13,-7.95808e-13)">
                <path d="M96.74,93.978L96.762,101.542L118.239,89.142L118.217,81.579L96.74,93.978ZM96.717,85.422L96.736,92.994L118.214,80.593L118.194,73.022L96.717,85.422ZM125.75,110.396L125.658,77.284L119.075,81.083L119.099,89.632L95.907,103.021L95.883,94.474L89.301,98.273L89.395,131.385L95.977,127.585L95.928,110.595L119.121,97.206L119.169,114.196L125.75,110.396ZM119.073,80.098L126.511,75.804L126.611,110.886L118.314,115.676L118.266,98.686L96.788,111.085L96.837,128.075L88.539,132.866L88.44,97.785L95.88,93.489L95.856,84.931L119.048,71.541L119.073,80.098Z" style="fill:white;fill-rule:nonzero;"/>
            </g>
            <g transform="matrix(4.16667,0,0,4.16667,-4.54747e-13,-7.95808e-13)">
                <path d="M95.88,93.489L74.56,81.098L74.536,72.54L95.856,84.931L95.88,93.489Z" style="fill:rgb(82,134,197);fill-rule:nonzero;"/>
            </g>
            <g transform="matrix(4.16667,0,0,4.16667,-4.54747e-13,-7.95808e-13)">
                <path d="M95.856,84.931L74.536,72.54L97.728,59.151L119.048,71.541L95.856,84.931Z" style="fill:rgb(103,152,209);fill-rule:nonzero;"/>
            </g>
        </g>
    </g>
    <g transform="matrix(1,0,0,1,-475.663,-219.596)">
        <g id="C">
            <g transform="matrix(4.16667,0,0,4.16667,-4.54747e-13,-7.95808e-13)">
                <path d="M343.892,116.839L322.573,104.448L322.551,96.992L343.872,109.382L343.892,116.839Z" style="fill:rgb(82,134,197);fill-rule:nonzero;"/>
            </g>
            <g transform="matrix(4.16667,0,0,4.16667,-4.54747e-13,-7.95808e-13)">
                <path d="M344.726,107.901L323.407,95.512L329.988,91.711L351.308,104.102L344.726,107.901Z" style="fill:rgb(103,152,209);fill-rule:nonzero;"/>
            </g>
            <g transform="matrix(4.16667,0,0,4.16667,-4.54747e-13,-7.95808e-13)">
                <path d="M351.308,104.102L329.988,91.711L329.966,84.148L351.287,96.539L351.308,104.102Z" style="fill:rgb(82,134,197);fill-rule:nonzero;"/>
            </g>
            <g transform="matrix(4.16667,0,0,4.16667,-4.54747e-13,-7.95808e-13)">
                <path d="M344.726,107.901L344.705,100.337L351.287,96.539L351.308,104.102L344.726,107.901Z" style="fill:white;fill-rule:nonzero;"/>
            </g>
            <g transform="matrix(4.16667,0,0,4.16667,-4.54747e-13,-7.95808e-13)">
                <path d="M344.726,107.901L323.407,95.512L323.384,87.949L344.705,100.337L344.726,107.901Z" style="fill:rgb(82,134,197);fill-rule:nonzero;"/>
            </g>
            <g transform="matrix(4.16667,0,0,4.16667,-4.54747e-13,-7.95808e-13)">
                <path d="M344.705,100.337L323.384,87.949L329.966,84.148L351.287,96.539L344.705,100.337Z" style="fill:rgb(103,152,209);fill-rule:nonzero;"/>
            </g>
            <g transform="matrix(4.16667,0,0,4.16667,-4.54747e-13,-7.95808e-13)">
                <path d="M343.868,108.396L322.548,96.007L322.523,87.457L343.843,99.848L343.868,108.396Z" style="fill:rgb(82,134,197);fill-rule:nonzero;"/>
            </g>
            <g transform="matrix(4.16667,0,0,4.16667,-4.54747e-13,-7.95808e-13)">
                <path d="M343.843,99.848L322.523,87.457L330.821,82.668L352.141,95.057L343.843,99.848Z" style="fill:rgb(103,152,209);fill-rule:nonzero;"/>
            </g>
            <g transform="matrix(4.16667,0,0,4.16667,-4.54747e-13,-7.95808e-13)">
                <path d="M322.416,129.238L301.096,116.848L322.573,104.448L343.892,116.839L322.416,129.238Z" style="fill:rgb(103,152,209);fill-rule:nonzero;"/>
            </g>
            <g transform="matrix(4.16667,0,0,4.16667,-4.54747e-13,-7.95808e-13)">
                <path d="M344.678,90.795L323.358,78.405L329.94,74.605L351.26,86.995L344.678,90.795Z" style="fill:rgb(103,152,209);fill-rule:nonzero;"/>
            </g>
            <g transform="matrix(4.16667,0,0,4.16667,-4.54747e-13,-7.95808e-13)">
                <path d="M351.26,86.995L329.94,74.605L329.918,67.042L351.239,79.431L351.26,86.995Z" style="fill:rgb(82,134,197);fill-rule:nonzero;"/>
            </g>
            <g transform="matrix(4.16667,0,0,4.16667,-4.54747e-13,-7.95808e-13)">
                <path d="M322.394,121.781L301.075,109.392L322.551,96.992L343.872,109.382L322.394,121.781Z" style="fill:rgb(103,152,209);fill-rule:nonzero;"/>
            </g>
            <g transform="matrix(4.16667,0,0,4.16667,-4.54747e-13,-7.95808e-13)">
                <path d="M322.416,129.238L301.096,116.848L301.075,109.392L322.394,121.781L322.416,129.238Z" style="fill:rgb(82,134,197);fill-rule:nonzero;"/>
            </g>
            <g transform="matrix(4.16667,0,0,4.16667,-4.54747e-13,-7.95808e-13)">
                <path d="M322.416,129.238L322.394,121.781L343.872,109.382L343.892,116.839L322.416,129.238Z" style="fill:white;fill-rule:nonzero;"/>
            </g>
            <g transform="matrix(4.16667,0,0,4.16667,-4.54747e-13,-7.95808e-13)">
                <path d="M344.656,83.232L351.239,79.431L351.26,86.995L344.678,90.795L344.656,83.232Z" style="fill:white;fill-rule:nonzero;"/>
            </g>
            <g transform="matrix(4.16667,0,0,4.16667,-4.54747e-13,-7.95808e-13)">
                <path d="M344.678,90.795L323.358,78.405L323.335,70.842L344.656,83.232L344.678,90.795Z" style="fill:rgb(82,134,197);fill-rule:nonzero;"/>
            </g>
            <g transform="matrix(4.16667,0,0,4.16667,-4.54747e-13,-7.95808e-13)">
                <path d="M344.656,83.232L323.335,70.842L329.918,67.042L351.239,79.431L344.656,83.232Z" style="fill:rgb(103,152,209);fill-rule:nonzero;"/>
            </g>
            <g transform="matrix(4.16667,0,0,4.16667,-4.54747e-13,-7.95808e-13)">
                <path d="M321.561,130.718L300.241,118.328L300.217,109.886L321.537,122.276L321.561,130.718Z" style="fill:rgb(82,134,197);fill-rule:nonzero;"/>
            </g>
            <g transform="matrix(4.16667,0,0,4.16667,-4.54747e-13,-7.95808e-13)">
                <path d="M322.391,120.796L301.073,108.406L322.548,96.007L343.868,108.396L322.391,120.796Z" style="fill:rgb(103,152,209);fill-rule:nonzero;"/>
            </g>
            <g transform="matrix(4.16667,0,0,4.16667,-4.54747e-13,-7.95808e-13)">
                <path d="M343.822,92.276L322.503,79.884L322.478,71.337L343.798,83.727L343.822,92.276Z" style="fill:rgb(82,134,197);fill-rule:nonzero;"/>
            </g>
            <g transform="matrix(4.16667,0,0,4.16667,-4.54747e-13,-7.95808e-13)">
                <path d="M344.654,82.246L323.333,69.857L330.772,65.561L352.092,77.951L344.654,82.246Z" style="fill:rgb(103,152,209);fill-rule:nonzero;"/>
            </g>
            <g transform="matrix(4.16667,0,0,4.16667,-4.54747e-13,-7.95808e-13)">
                <path d="M314.945,125.096L293.624,112.706L300.214,108.901L321.534,121.291L314.945,125.096Z" style="fill:rgb(103,152,209);fill-rule:nonzero;"/>
            </g>
            <g transform="matrix(4.16667,0,0,4.16667,-4.54747e-13,-7.95808e-13)">
                <path d="M343.795,82.741L322.475,70.352L322.455,62.78L343.774,75.168L343.795,82.741Z" style="fill:rgb(82,134,197);fill-rule:nonzero;"/>
            </g>
            <g transform="matrix(4.16667,0,0,4.16667,-4.54747e-13,-7.95808e-13)">
                <path d="M321.534,121.291L300.214,108.901L300.144,84.231L321.464,96.621L321.534,121.291Z" style="fill:rgb(82,134,197);fill-rule:nonzero;"/>
            </g>
            <g transform="matrix(4.16667,0,0,4.16667,-4.54747e-13,-7.95808e-13)">
                <path d="M322.319,95.142L300.999,82.75L322.475,70.352L343.795,82.741L322.319,95.142Z" style="fill:rgb(103,152,209);fill-rule:nonzero;"/>
            </g>
            <g transform="matrix(4.16667,0,0,4.16667,-4.54747e-13,-7.95808e-13)">
                <path d="M314.874,100.426L293.554,88.036L300.144,84.231L321.464,96.621L314.874,100.426Z" style="fill:rgb(103,152,209);fill-rule:nonzero;"/>
            </g>
            <g transform="matrix(4.16667,0,0,4.16667,-4.54747e-13,-7.95808e-13)">
                <path d="M314.945,125.096L293.624,112.706L293.554,88.036L314.874,100.426L314.945,125.096Z" style="fill:rgb(82,134,197);fill-rule:nonzero;"/>
            </g>
            <g transform="matrix(4.16667,0,0,4.16667,-4.54747e-13,-7.95808e-13)">
                <path d="M314.945,125.096L314.874,100.426L321.464,96.621L321.534,121.291L314.945,125.096Z" style="fill:white;fill-rule:nonzero;"/>
            </g>
            <g transform="matrix(4.16667,0,0,4.16667,-4.54747e-13,-7.95808e-13)">
                <path d="M322.297,87.57L300.978,75.178L322.455,62.78L343.774,75.168L322.297,87.57Z" style="fill:rgb(103,152,209);fill-rule:nonzero;"/>
            </g>
            <g transform="matrix(4.16667,0,0,4.16667,-4.54747e-13,-7.95808e-13)">
                <path d="M322.319,95.142L322.297,87.57L343.774,75.168L343.795,82.741L322.319,95.142Z" style="fill:white;fill-rule:nonzero;"/>
            </g>
            <g transform="matrix(4.16667,0,0,4.16667,-4.54747e-13,-7.95808e-13)">
                <path d="M322.319,95.142L300.999,82.75L300.978,75.178L322.297,87.57L322.319,95.142Z" style="fill:rgb(82,134,197);fill-rule:nonzero;"/>
            </g>
            <g transform="matrix(4.16667,0,0,4.16667,-4.54747e-13,-7.95808e-13)">
                <path d="M314.013,99.935L292.695,87.546L300.141,83.246L321.462,95.636L314.013,99.935Z" style="fill:rgb(103,152,209);fill-rule:nonzero;"/>
            </g>
            <g transform="matrix(4.16667,0,0,4.16667,-4.54747e-13,-7.95808e-13)">
                <path d="M314.089,126.576L292.769,114.187L292.695,87.546L314.013,99.935L314.089,126.576Z" style="fill:rgb(82,134,197);fill-rule:nonzero;"/>
            </g>
            <g transform="matrix(4.16667,0,0,4.16667,-4.54747e-13,-7.95808e-13)">
                <path d="M344.705,100.337L344.726,107.901L351.308,104.102L351.287,96.539L344.705,100.337ZM344.656,83.232L344.678,90.795L351.26,86.995L351.239,79.431L344.656,83.232ZM343.872,109.382L322.394,121.781L322.416,129.238L343.892,116.839L343.872,109.382ZM321.534,121.291L321.464,96.621L314.874,100.426L314.945,125.096L321.534,121.291ZM322.319,95.142L343.795,82.741L343.774,75.168L322.297,87.57L322.319,95.142ZM352.121,87.486L343.822,92.276L343.798,83.727L322.322,96.126L322.391,120.796L343.868,108.396L343.843,99.848L352.141,95.057L352.168,104.591L344.729,108.887L344.752,117.328L321.561,130.718L321.537,122.276L314.089,126.576L314.013,99.935L321.462,95.636L321.437,87.079L344.629,73.689L344.654,82.246L352.092,77.951L352.121,87.486Z" style="fill:white;fill-rule:nonzero;"/>
            </g>
            <g transform="matrix(4.16667,0,0,4.16667,-4.54747e-13,-7.95808e-13)">
                <path d="M321.437,87.079L300.118,74.689L323.309,61.299L344.629,73.689L321.437,87.079Z" style="fill:rgb(103,152,209);fill-rule:nonzero;"/>
            </g>
            <g transform="matrix(4.16667,0,0,4.16667,-4.54747e-13,-7.95808e-13)">
                <path d="M321.462,95.636L300.141,83.246L300.118,74.689L321.437,87.079L321.462,95.636Z" style="fill:rgb(82,134,197);fill-rule:nonzero;"/>
            </g>
        </g>
    </g>
    <g transform="matrix(1,0,0,1,46.0956,78.6001)">
        <g id="D">
            <g transform="matrix(4.16667,0,0,4.16667,-4.54747e-13,-7.95808e-13)">
                <path d="M456.68,114.69L435.361,102.3L435.339,94.844L456.659,107.233L456.68,114.69Z" style="fill:rgb(82,134,197);fill-rule:nonzero;"/>
            </g>
            <g transform="matrix(4.16667,0,0,4.16667,-4.54747e-13,-7.95808e-13)">
                <path d="M457.514,105.754L436.194,93.364L442.785,89.559L464.103,101.948L457.514,105.754Z" style="fill:rgb(103,152,209);fill-rule:nonzero;"/>
            </g>
            <g transform="matrix(4.16667,0,0,4.16667,-4.54747e-13,-7.95808e-13)">
                <path d="M464.103,101.948L442.785,89.559L442.713,64.888L464.034,77.279L464.103,101.948Z" style="fill:rgb(82,134,197);fill-rule:nonzero;"/>
            </g>
            <g transform="matrix(4.16667,0,0,4.16667,-4.54747e-13,-7.95808e-13)">
                <path d="M457.444,81.083L436.124,68.694L442.713,64.888L464.034,77.279L457.444,81.083Z" style="fill:rgb(103,152,209);fill-rule:nonzero;"/>
            </g>
            <g transform="matrix(4.16667,0,0,4.16667,-4.54747e-13,-7.95808e-13)">
                <path d="M457.514,105.754L436.194,93.364L436.124,68.694L457.444,81.083L457.514,105.754Z" style="fill:rgb(82,134,197);fill-rule:nonzero;"/>
            </g>
            <g transform="matrix(4.16667,0,0,4.16667,-4.54747e-13,-7.95808e-13)">
                <path d="M427.764,131.386L406.445,118.995L435.361,102.3L456.68,114.69L427.764,131.386Z" style="fill:rgb(103,152,209);fill-rule:nonzero;"/>
            </g>
            <g transform="matrix(4.16667,0,0,4.16667,-4.54747e-13,-7.95808e-13)">
                <path d="M434.333,120.124L413.013,107.734L435.339,94.844L456.659,107.233L434.333,120.124Z" style="fill:rgb(103,152,209);fill-rule:nonzero;"/>
            </g>
            <g transform="matrix(4.16667,0,0,4.16667,-4.54747e-13,-7.95808e-13)">
                <path d="M435.187,118.645L413.868,106.254L435.336,93.859L456.657,106.249L435.187,118.645Z" style="fill:rgb(103,152,209);fill-rule:nonzero;"/>
            </g>
            <g transform="matrix(4.16667,0,0,4.16667,-4.54747e-13,-7.95808e-13)">
                <path d="M456.657,106.249L435.336,93.859L435.267,69.189L456.585,81.579L456.657,106.249Z" style="fill:rgb(82,134,197);fill-rule:nonzero;"/>
            </g>
            <g transform="matrix(4.16667,0,0,4.16667,-4.54747e-13,-7.95808e-13)">
                <path d="M457.442,80.097L436.121,67.708L443.568,63.409L464.888,75.799L457.442,80.097Z" style="fill:rgb(103,152,209);fill-rule:nonzero;"/>
            </g>
            <g transform="matrix(4.16667,0,0,4.16667,-4.54747e-13,-7.95808e-13)">
                <path d="M456.583,80.592L435.264,68.204L435.243,60.631L456.562,73.023L456.583,80.592Z" style="fill:rgb(82,134,197);fill-rule:nonzero;"/>
            </g>
            <g transform="matrix(4.16667,0,0,4.16667,-4.54747e-13,-7.95808e-13)">
                <path d="M434.333,120.124L413.013,107.734L412.937,81.094L434.258,93.483L434.333,120.124Z" style="fill:rgb(82,134,197);fill-rule:nonzero;"/>
            </g>
            <g transform="matrix(4.16667,0,0,4.16667,-4.54747e-13,-7.95808e-13)">
                <path d="M434.258,93.483L412.937,81.094L435.264,68.204L456.583,80.592L434.258,93.483Z" style="fill:rgb(103,152,209);fill-rule:nonzero;"/>
            </g>
            <g transform="matrix(4.16667,0,0,4.16667,-4.54747e-13,-7.95808e-13)">
                <path d="M427.646,89.716L406.327,77.327L435.243,60.631L456.562,73.023L427.646,89.716Z" style="fill:rgb(103,152,209);fill-rule:nonzero;"/>
            </g>
            <g transform="matrix(4.16667,0,0,4.16667,-4.54747e-13,-7.95808e-13)">
                <path d="M427.764,131.386L406.445,118.995L406.327,77.327L427.646,89.716L427.764,131.386Z" style="fill:rgb(82,134,197);fill-rule:nonzero;"/>
            </g>
            <g transform="matrix(4.16667,0,0,4.16667,-4.54747e-13,-7.95808e-13)">
                <path d="M464.103,101.948L464.034,77.279L457.444,81.083L457.514,105.754L464.103,101.948ZM456.657,106.249L456.585,81.579L435.118,93.974L435.187,118.645L456.657,106.249ZM456.583,80.592L456.562,73.023L427.646,89.716L427.764,131.386L456.68,114.69L456.659,107.233L434.333,120.124L434.258,93.483L456.583,80.592ZM457.442,80.097L464.888,75.799L464.963,102.439L457.517,106.738L457.541,115.18L426.91,132.866L426.785,89.226L457.417,71.541L457.442,80.097Z" style="fill:white;fill-rule:nonzero;"/>
            </g>
            <g transform="matrix(4.16667,0,0,4.16667,-4.54747e-13,-7.95808e-13)">
                <path d="M457.444,81.083L464.034,77.279L464.103,101.948L457.514,105.754L457.444,81.083Z" style="fill:white;fill-rule:nonzero;"/>
            </g>
            <g transform="matrix(4.16667,0,0,4.16667,-4.54747e-13,-7.95808e-13)">
                <path d="M427.764,131.386L427.646,89.716L456.562,73.023L456.583,80.592L434.258,93.483L434.333,120.124L456.659,107.233L456.68,114.69L427.764,131.386Z" style="fill:white;fill-rule:nonzero;"/>
            </g>
            <g transform="matrix(4.16667,0,0,4.16667,-4.54747e-13,-7.95808e-13)">
                <path d="M426.91,132.866L405.588,120.477L405.466,76.836L426.785,89.226L426.91,132.866Z" style="fill:rgb(82,134,197);fill-rule:nonzero;"/>
            </g>
            <g transform="matrix(4.16667,0,0,4.16667,-4.54747e-13,-7.95808e-13)">
                <path d="M426.785,89.226L405.466,76.836L436.096,59.151L457.417,71.541L426.785,89.226Z" style="fill:rgb(103,152,209);fill-rule:nonzero;"/>
            </g>
        </g>
    </g>
    <g transform="matrix(1,0,0,1,-1911.32,-237.504)">
        <g id="E">
            <g transform="matrix(4.16667,0,0,4.16667,-4.54747e-13,-7.95808e-13)">
                <path d="M576.898,112.54L555.578,100.151L555.557,92.696L576.879,105.084L576.898,112.54Z" style="fill:rgb(82,134,197);fill-rule:nonzero;"/>
            </g>
            <g transform="matrix(4.16667,0,0,4.16667,-4.54747e-13,-7.95808e-13)">
                <path d="M540.536,133.535L519.216,121.145L555.578,100.151L576.898,112.54L540.536,133.535Z" style="fill:rgb(103,152,209);fill-rule:nonzero;"/>
            </g>
            <g transform="matrix(4.16667,0,0,4.16667,-4.54747e-13,-7.95808e-13)">
                <path d="M547.104,122.275L525.784,109.884L555.557,92.696L576.879,105.084L547.104,122.275Z" style="fill:rgb(103,152,209);fill-rule:nonzero;"/>
            </g>
            <g transform="matrix(4.16667,0,0,4.16667,-4.54747e-13,-7.95808e-13)">
                <path d="M547.958,120.795L526.639,108.403L556.412,91.214L577.73,103.604L547.958,120.795Z" style="fill:rgb(103,152,209);fill-rule:nonzero;"/>
            </g>
            <g transform="matrix(4.16667,0,0,4.16667,-4.54747e-13,-7.95808e-13)">
                <path d="M569.404,99.85L548.084,87.461L548.063,79.888L569.381,92.277L569.404,99.85Z" style="fill:rgb(82,134,197);fill-rule:nonzero;"/>
            </g>
            <g transform="matrix(4.16667,0,0,4.16667,-4.54747e-13,-7.95808e-13)">
                <path d="M576.801,78.443L555.482,66.054L555.461,58.482L576.779,70.872L576.801,78.443Z" style="fill:rgb(82,134,197);fill-rule:nonzero;"/>
            </g>
            <g transform="matrix(4.16667,0,0,4.16667,-4.54747e-13,-7.95808e-13)">
                <path d="M547.077,112.74L525.756,100.351L548.084,87.461L569.404,99.85L547.077,112.74Z" style="fill:rgb(103,152,209);fill-rule:nonzero;"/>
            </g>
            <g transform="matrix(4.16667,0,0,4.16667,-4.54747e-13,-7.95808e-13)">
                <path d="M547.104,122.275L525.784,109.884L525.756,100.351L547.077,112.74L547.104,122.275Z" style="fill:rgb(82,134,197);fill-rule:nonzero;"/>
            </g>
            <g transform="matrix(4.16667,0,0,4.16667,-4.54747e-13,-7.95808e-13)">
                <path d="M547.055,105.167L525.735,92.779L548.063,79.888L569.381,92.277L547.055,105.167Z" style="fill:rgb(103,152,209);fill-rule:nonzero;"/>
            </g>
            <g transform="matrix(4.16667,0,0,4.16667,-4.54747e-13,-7.95808e-13)">
                <path d="M547.911,103.687L526.59,91.297L548.917,78.407L570.238,90.797L547.911,103.687Z" style="fill:rgb(103,152,209);fill-rule:nonzero;"/>
            </g>
            <g transform="matrix(4.16667,0,0,4.16667,-4.54747e-13,-7.95808e-13)">
                <path d="M547.055,105.167L525.735,92.779L525.708,83.245L547.028,95.634L547.055,105.167Z" style="fill:rgb(82,134,197);fill-rule:nonzero;"/>
            </g>
            <g transform="matrix(4.16667,0,0,4.16667,-4.54747e-13,-7.95808e-13)">
                <path d="M547.028,95.634L525.708,83.245L555.482,66.054L576.801,78.443L547.028,95.634Z" style="fill:rgb(103,152,209);fill-rule:nonzero;"/>
            </g>
            <g transform="matrix(4.16667,0,0,4.16667,-4.54747e-13,-7.95808e-13)">
                <path d="M540.536,133.535L519.216,121.145L519.098,79.476L540.417,91.867L540.536,133.535Z" style="fill:rgb(82,134,197);fill-rule:nonzero;"/>
            </g>
            <g transform="matrix(4.16667,0,0,4.16667,-4.54747e-13,-7.95808e-13)">
                <path d="M540.417,91.867L519.098,79.476L555.461,58.482L576.779,70.872L540.417,91.867Z" style="fill:rgb(103,152,209);fill-rule:nonzero;"/>
            </g>
            <g transform="matrix(4.16667,0,0,4.16667,-4.54747e-13,-7.95808e-13)">
                <path d="M569.381,92.277L547.055,105.167L547.028,95.634L576.801,78.443L576.779,70.872L540.417,91.867L540.536,133.535L576.898,112.54L576.879,105.084L547.104,122.275L547.077,112.74L569.404,99.85L569.381,92.277ZM577.662,78.934L547.889,96.124L547.911,103.687L570.238,90.797L570.264,100.341L547.936,113.23L547.958,120.795L577.73,103.604L577.76,113.031L539.682,135.016L539.557,91.376L577.635,69.391L577.662,78.934Z" style="fill:white;fill-rule:nonzero;"/>
            </g>
            <g transform="matrix(4.16667,0,0,4.16667,-4.54747e-13,-7.95808e-13)">
                <path d="M576.779,70.872L576.801,78.443L547.028,95.634L547.055,105.167L569.381,92.277L569.404,99.85L547.077,112.74L547.104,122.275L576.879,105.084L576.898,112.54L540.536,133.535L540.417,91.867L576.779,70.872Z" style="fill:white;fill-rule:nonzero;"/>
            </g>
            <g transform="matrix(4.16667,0,0,4.16667,-4.54747e-13,-7.95808e-13)">
                <path d="M539.557,91.376L518.237,78.986L556.314,57.001L577.635,69.391L539.557,91.376Z" style="fill:rgb(103,152,209);fill-rule:nonzero;"/>
            </g>
            <g transform="matrix(4.16667,0,0,4.16667,-4.54747e-13,-7.95808e-13)">
                <path d="M539.682,135.016L518.361,122.626L518.237,78.986L539.557,91.376L539.682,135.016Z" style="fill:rgb(82,134,197);fill-rule:nonzero;"/>
            </g>
        </g>
    </g>
    <g transform="matrix(1,0,0,1,-175.879,87.5585)">
        <g id="E1" serif:id="E">
            <g transform="matrix(4.16667,0,0,4.16667,-4.54747e-13,-7.95808e-13)">
                <path d="M576.898,112.54L555.578,100.151L555.557,92.696L576.879,105.084L576.898,112.54Z" style="fill:rgb(82,134,197);fill-rule:nonzero;"/>
            </g>
            <g transform="matrix(4.16667,0,0,4.16667,-4.54747e-13,-7.95808e-13)">
                <path d="M540.536,133.535L519.216,121.145L555.578,100.151L576.898,112.54L540.536,133.535Z" style="fill:rgb(103,152,209);fill-rule:nonzero;"/>
            </g>
            <g transform="matrix(4.16667,0,0,4.16667,-4.54747e-13,-7.95808e-13)">
                <path d="M547.104,122.275L525.784,109.884L555.557,92.696L576.879,105.084L547.104,122.275Z" style="fill:rgb(103,152,209);fill-rule:nonzero;"/>
            </g>
            <g transform="matrix(4.16667,0,0,4.16667,-4.54747e-13,-7.95808e-13)">
                <path d="M547.958,120.795L526.639,108.403L556.412,91.214L577.73,103.604L547.958,120.795Z" style="fill:rgb(103,152,209);fill-rule:nonzero;"/>
            </g>
            <g transform="matrix(4.16667,0,0,4.16667,-4.54747e-13,-7.95808e-13)">
                <path d="M569.404,99.85L548.084,87.461L548.063,79.888L569.381,92.277L569.404,99.85Z" style="fill:rgb(82,134,197);fill-rule:nonzero;"/>
            </g>
            <g transform="matrix(4.16667,0,0,4.16667,-4.54747e-13,-7.95808e-13)">
                <path d="M576.801,78.443L555.482,66.054L555.461,58.482L576.779,70.872L576.801,78.443Z" style="fill:rgb(82,134,197);fill-rule:nonzero;"/>
            </g>
            <g transform="matrix(4.16667,0,0,4.16667,-4.54747e-13,-7.95808e-13)">
                <path d="M547.077,112.74L525.756,100.351L548.084,87.461L569.404,99.85L547.077,112.74Z" style="fill:rgb(103,152,209);fill-rule:nonzero;"/>
            </g>
            <g transform="matrix(4.16667,0,0,4.16667,-4.54747e-13,-7.95808e-13)">
                <path d="M547.104,122.275L525.784,109.884L525.756,100.351L547.077,112.74L547.104,122.275Z" style="fill:rgb(82,134,197);fill-rule:nonzero;"/>
            </g>
            <g transform="matrix(4.16667,0,0,4.16667,-4.54747e-13,-7.95808e-13)">
                <path d="M547.055,105.167L525.735,92.779L548.063,79.888L569.381,92.277L547.055,105.167Z" style="fill:rgb(103,152,209);fill-rule:nonzero;"/>
            </g>
            <g transform="matrix(4.16667,0,0,4.16667,-4.54747e-13,-7.95808e-13)">
                <path d="M547.911,103.687L526.59,91.297L548.917,78.407L570.238,90.797L547.911,103.687Z" style="fill:rgb(103,152,209);fill-rule:nonzero;"/>
            </g>
            <g transform="matrix(4.16667,0,0,4.16667,-4.54747e-13,-7.95808e-13)">
                <path d="M547.055,105.167L525.735,92.779L525.708,83.245L547.028,95.634L547.055,105.167Z" style="fill:rgb(82,134,197);fill-rule:nonzero;"/>
            </g>
            <g transform="matrix(4.16667,0,0,4.16667,-4.54747e-13,-7.95808e-13)">
                <path d="M547.028,95.634L525.708,83.245L555.482,66.054L576.801,78.443L547.028,95.634Z" style="fill:rgb(103,152,209);fill-rule:nonzero;"/>
            </g>
            <g transform="matrix(4.16667,0,0,4.16667,-4.54747e-13,-7.95808e-13)">
                <path d="M540.536,133.535L519.216,121.145L519.098,79.476L540.417,91.867L540.536,133.535Z" style="fill:rgb(82,134,197);fill-rule:nonzero;"/>
            </g>
            <g transform="matrix(4.16667,0,0,4.16667,-4.54747e-13,-7.95808e-13)">
                <path d="M540.417,91.867L519.098,79.476L555.461,58.482L576.779,70.872L540.417,91.867Z" style="fill:rgb(103,152,209);fill-rule:nonzero;"/>
            </g>
            <g transform="matrix(4.16667,0,0,4.16667,-4.54747e-13,-7.95808e-13)">
                <path d="M569.381,92.277L547.055,105.167L547.028,95.634L576.801,78.443L576.779,70.872L540.417,91.867L540.536,133.535L576.898,112.54L576.879,105.084L547.104,122.275L547.077,112.74L569.404,99.85L569.381,92.277ZM577.662,78.934L547.889,96.124L547.911,103.687L570.238,90.797L570.264,100.341L547.936,113.23L547.958,120.795L577.73,103.604L577.76,113.031L539.682,135.016L539.557,91.376L577.635,69.391L577.662,78.934Z" style="fill:white;fill-rule:nonzero;"/>
            </g>
            <g transform="matrix(4.16667,0,0,4.16667,-4.54747e-13,-7.95808e-13)">
                <path d="M576.779,70.872L576.801,78.443L547.028,95.634L547.055,105.167L569.381,92.277L569.404,99.85L547.077,112.74L547.104,122.275L576.879,105.084L576.898,112.54L540.536,133.535L540.417,91.867L576.779,70.872Z" style="fill:white;fill-rule:nonzero;"/>
            </g>
            <g transform="matrix(4.16667,0,0,4.16667,-4.54747e-13,-7.95808e-13)">
                <path d="M539.557,91.376L518.237,78.986L556.314,57.001L577.635,69.391L539.557,91.376Z" style="fill:rgb(103,152,209);fill-rule:nonzero;"/>
            </g>
            <g transform="matrix(4.16667,0,0,4.16667,-4.54747e-13,-7.95808e-13)">
                <path d="M539.682,135.016L518.361,122.626L518.237,78.986L539.557,91.376L539.682,135.016Z" style="fill:rgb(82,134,197);fill-rule:nonzero;"/>
            </g>
        </g>
    </g>
    <g transform="matrix(1,0,0,1,-2629.45,87.5626)">
        <g id="F">
            <g transform="matrix(4.16667,0,0,4.16667,-4.54747e-13,-7.95808e-13)">
                <path d="M682.234,99.851L660.914,87.461L660.893,79.888L682.213,92.278L682.234,99.851Z" style="fill:rgb(82,134,197);fill-rule:nonzero;"/>
            </g>
            <g transform="matrix(4.16667,0,0,4.16667,-4.54747e-13,-7.95808e-13)">
                <path d="M653.365,133.535L632.047,121.146L638.628,117.346L659.948,129.735L653.365,133.535Z" style="fill:rgb(103,152,209);fill-rule:nonzero;"/>
            </g>
            <g transform="matrix(4.16667,0,0,4.16667,-4.54747e-13,-7.95808e-13)">
                <path d="M689.633,78.444L668.313,66.053L668.292,58.482L689.611,70.872L689.633,78.444Z" style="fill:rgb(82,134,197);fill-rule:nonzero;"/>
            </g>
            <g transform="matrix(4.16667,0,0,4.16667,-4.54747e-13,-7.95808e-13)">
                <path d="M659.9,112.744L638.58,100.354L660.914,87.461L682.234,99.851L659.9,112.744Z" style="fill:rgb(103,152,209);fill-rule:nonzero;"/>
            </g>
            <g transform="matrix(4.16667,0,0,4.16667,-4.54747e-13,-7.95808e-13)">
                <path d="M659.948,129.735L638.628,117.346L638.58,100.354L659.9,112.744L659.948,129.735Z" style="fill:rgb(82,134,197);fill-rule:nonzero;"/>
            </g>
            <g transform="matrix(4.16667,0,0,4.16667,-4.54747e-13,-7.95808e-13)">
                <path d="M659.879,105.173L638.559,92.782L660.893,79.888L682.213,92.278L659.879,105.173Z" style="fill:rgb(103,152,209);fill-rule:nonzero;"/>
            </g>
            <g transform="matrix(4.16667,0,0,4.16667,-4.54747e-13,-7.95808e-13)">
                <path d="M660.74,103.687L639.421,91.298L661.746,78.408L683.067,90.796L660.74,103.687Z" style="fill:rgb(103,152,209);fill-rule:nonzero;"/>
            </g>
            <g transform="matrix(4.16667,0,0,4.16667,-4.54747e-13,-7.95808e-13)">
                <path d="M659.879,105.173L638.559,92.782L638.531,83.249L659.852,95.638L659.879,105.173Z" style="fill:rgb(82,134,197);fill-rule:nonzero;"/>
            </g>
            <g transform="matrix(4.16667,0,0,4.16667,-4.54747e-13,-7.95808e-13)">
                <path d="M659.852,95.638L638.531,83.249L668.313,66.053L689.633,78.444L659.852,95.638Z" style="fill:rgb(103,152,209);fill-rule:nonzero;"/>
            </g>
            <g transform="matrix(4.16667,0,0,4.16667,-4.54747e-13,-7.95808e-13)">
                <path d="M689.611,70.872L689.633,78.444L659.852,95.638L659.879,105.173L682.213,92.278L682.234,99.851L659.9,112.744L659.948,129.735L653.365,133.535L653.247,91.867L689.611,70.872Z" style="fill:white;fill-rule:nonzero;"/>
            </g>
            <g transform="matrix(4.16667,0,0,4.16667,-4.54747e-13,-7.95808e-13)">
                <path d="M653.365,133.535L632.047,121.146L631.929,79.476L653.247,91.867L653.365,133.535Z" style="fill:rgb(82,134,197);fill-rule:nonzero;"/>
            </g>
            <g transform="matrix(4.16667,0,0,4.16667,-4.54747e-13,-7.95808e-13)">
                <path d="M653.247,91.867L631.929,79.476L668.292,58.482L689.611,70.872L653.247,91.867Z" style="fill:rgb(103,152,209);fill-rule:nonzero;"/>
            </g>
            <g transform="matrix(4.16667,0,0,4.16667,-4.54747e-13,-7.95808e-13)">
                <path d="M652.387,91.375L631.068,78.987L669.146,57L690.467,69.392L652.387,91.375Z" style="fill:rgb(103,152,209);fill-rule:nonzero;"/>
            </g>
            <g transform="matrix(4.16667,0,0,4.16667,-4.54747e-13,-7.95808e-13)">
                <path d="M652.512,135.017L631.19,122.626L631.068,78.987L652.387,91.375L652.512,135.017Z" style="fill:rgb(82,134,197);fill-rule:nonzero;"/>
            </g>
            <g transform="matrix(4.16667,0,0,4.16667,-4.54747e-13,-7.95808e-13)">
                <path d="M682.213,92.278L659.879,105.173L659.852,95.638L689.633,78.444L689.611,70.872L653.247,91.867L653.365,133.535L659.948,129.735L659.9,112.744L682.234,99.851L682.213,92.278ZM690.494,78.935L660.719,96.123L660.74,103.687L683.067,90.796L683.095,100.341L660.767,113.231L660.815,130.221L652.512,135.017L652.387,91.375L690.467,69.392L690.494,78.935Z" style="fill:white;fill-rule:nonzero;"/>
            </g>
        </g>
    </g>
    <g transform="matrix(1,0,0,1,-2551.5,87.5712)">
        <g id="I">
            <g transform="matrix(4.16667,0,0,4.16667,-4.54747e-13,-7.95808e-13)">
                <path d="M1028.03,112.54L1006.71,100.151L1006.69,92.694L1028.01,105.084L1028.03,112.54Z" style="fill:rgb(82,134,197);fill-rule:nonzero;"/>
            </g>
            <g transform="matrix(4.16667,0,0,4.16667,-4.54747e-13,-7.95808e-13)">
                <path d="M991.674,133.53L970.355,121.141L1006.71,100.151L1028.03,112.54L991.674,133.53Z" style="fill:rgb(103,152,209);fill-rule:nonzero;"/>
            </g>
            <g transform="matrix(4.16667,0,0,4.16667,-4.54747e-13,-7.95808e-13)">
                <path d="M1013.12,113.679L991.803,101.289L1006.69,92.694L1028.01,105.084L1013.12,113.679Z" style="fill:rgb(103,152,209);fill-rule:nonzero;"/>
            </g>
            <g transform="matrix(4.16667,0,0,4.16667,-4.54747e-13,-7.95808e-13)">
                <path d="M1013.98,112.199L992.658,99.81L1007.54,91.214L1028.87,103.604L1013.98,112.199Z" style="fill:rgb(103,152,209);fill-rule:nonzero;"/>
            </g>
            <g transform="matrix(4.16667,0,0,4.16667,-4.54747e-13,-7.95808e-13)">
                <path d="M1027.93,78.443L1006.62,66.054L1006.59,58.482L1027.91,70.872L1027.93,78.443Z" style="fill:rgb(82,134,197);fill-rule:nonzero;"/>
            </g>
            <g transform="matrix(4.16667,0,0,4.16667,-4.54747e-13,-7.95808e-13)">
                <path d="M991.654,126.074L970.334,113.685L985.22,105.091L1006.54,117.479L991.654,126.074Z" style="fill:rgb(103,152,209);fill-rule:nonzero;"/>
            </g>
            <g transform="matrix(4.16667,0,0,4.16667,-4.54747e-13,-7.95808e-13)">
                <path d="M991.674,133.53L970.355,121.141L970.334,113.685L991.654,126.074L991.674,133.53Z" style="fill:rgb(82,134,197);fill-rule:nonzero;"/>
            </g>
            <g transform="matrix(4.16667,0,0,4.16667,-4.54747e-13,-7.95808e-13)">
                <path d="M990.786,125.588L969.466,113.199L984.359,104.6L1005.68,116.99L990.786,125.588Z" style="fill:rgb(103,152,209);fill-rule:nonzero;"/>
            </g>
            <g transform="matrix(4.16667,0,0,4.16667,-4.54747e-13,-7.95808e-13)">
                <path d="M990.813,135.016L969.492,122.626L969.466,113.199L990.786,125.588L990.813,135.016Z" style="fill:rgb(82,134,197);fill-rule:nonzero;"/>
            </g>
            <g transform="matrix(4.16667,0,0,4.16667,-4.54747e-13,-7.95808e-13)">
                <path d="M1013.12,113.679L991.803,101.289L991.728,74.648L1013.05,87.039L1013.12,113.679Z" style="fill:rgb(82,134,197);fill-rule:nonzero;"/>
            </g>
            <g transform="matrix(4.16667,0,0,4.16667,-4.54747e-13,-7.95808e-13)">
                <path d="M1013.05,87.039L991.728,74.648L1006.62,66.054L1027.93,78.443L1013.05,87.039Z" style="fill:rgb(103,152,209);fill-rule:nonzero;"/>
            </g>
            <g transform="matrix(4.16667,0,0,4.16667,-4.54747e-13,-7.95808e-13)">
                <path d="M1006.54,117.479L985.22,105.091L985.145,78.45L1006.46,90.838L1006.54,117.479Z" style="fill:rgb(82,134,197);fill-rule:nonzero;"/>
            </g>
            <g transform="matrix(4.16667,0,0,4.16667,-4.54747e-13,-7.95808e-13)">
                <path d="M1005.68,116.99L984.359,104.6L984.29,79.93L1005.61,92.32L1005.68,116.99Z" style="fill:rgb(82,134,197);fill-rule:nonzero;"/>
            </g>
            <g transform="matrix(4.16667,0,0,4.16667,-4.54747e-13,-7.95808e-13)">
                <path d="M991.578,99.434L970.259,87.043L985.145,78.45L1006.46,90.838L991.578,99.434Z" style="fill:rgb(103,152,209);fill-rule:nonzero;"/>
            </g>
            <g transform="matrix(4.16667,0,0,4.16667,-4.54747e-13,-7.95808e-13)">
                <path d="M991.556,91.862L970.237,79.471L1006.59,58.482L1027.91,70.872L991.556,91.862Z" style="fill:rgb(103,152,209);fill-rule:nonzero;"/>
            </g>
            <g transform="matrix(4.16667,0,0,4.16667,-4.54747e-13,-7.95808e-13)">
                <path d="M991.578,99.434L970.259,87.043L970.237,79.471L991.556,91.862L991.578,99.434Z" style="fill:rgb(82,134,197);fill-rule:nonzero;"/>
            </g>
            <g transform="matrix(4.16667,0,0,4.16667,-4.54747e-13,-7.95808e-13)">
                <path d="M1028.01,105.084L1013.12,113.679L1013.05,87.039L1027.93,78.443L1027.91,70.872L991.556,91.862L991.578,99.434L1006.46,90.838L1006.54,117.479L991.654,126.074L991.674,133.53L1028.03,112.54L1028.01,105.084ZM1028.79,78.934L1013.91,87.529L1013.98,112.199L1028.87,103.604L1028.89,113.031L990.813,135.016L990.786,125.588L1005.68,116.99L1005.61,92.32L990.716,100.917L990.689,91.376L1028.77,69.391L1028.79,78.934Z" style="fill:white;fill-rule:nonzero;"/>
            </g>
            <g transform="matrix(4.16667,0,0,4.16667,-4.54747e-13,-7.95808e-13)">
                <path d="M1027.91,70.872L1027.93,78.443L1013.05,87.039L1013.12,113.679L1028.01,105.084L1028.03,112.54L991.674,133.53L991.654,126.074L1006.54,117.479L1006.46,90.838L991.578,99.434L991.556,91.862L1027.91,70.872Z" style="fill:white;fill-rule:nonzero;"/>
            </g>
            <g transform="matrix(4.16667,0,0,4.16667,-4.54747e-13,-7.95808e-13)">
                <path d="M990.716,100.917L969.396,88.529L969.369,78.986L990.689,91.376L990.716,100.917Z" style="fill:rgb(82,134,197);fill-rule:nonzero;"/>
            </g>
            <g transform="matrix(4.16667,0,0,4.16667,-4.54747e-13,-7.95808e-13)">
                <path d="M990.689,91.376L969.369,78.986L1007.45,57.001L1028.77,69.391L990.689,91.376Z" style="fill:rgb(103,152,209);fill-rule:nonzero;"/>
            </g>
        </g>
    </g>
    <g transform="matrix(1,0,0,1,-723.571,-556.329)">
        <g id="L1" serif:id="L">
            <g transform="matrix(4.16667,0,0,4.16667,-4.54747e-13,-7.95808e-13)">
                <path d="M351.333,249.884L330.013,237.493L329.991,230.037L351.312,242.427L351.333,249.884Z" style="fill:rgb(82,134,197);fill-rule:nonzero;"/>
            </g>
            <g transform="matrix(4.16667,0,0,4.16667,-4.54747e-13,-7.95808e-13)">
                <path d="M314.97,270.878L293.648,258.488L330.013,237.493L351.333,249.884L314.97,270.878Z" style="fill:rgb(103,152,209);fill-rule:nonzero;"/>
            </g>
            <g transform="matrix(4.16667,0,0,4.16667,-4.54747e-13,-7.95808e-13)">
                <path d="M321.537,259.617L300.219,247.227L329.991,230.037L351.312,242.427L321.537,259.617Z" style="fill:rgb(103,152,209);fill-rule:nonzero;"/>
            </g>
            <g transform="matrix(4.16667,0,0,4.16667,-4.54747e-13,-7.95808e-13)">
                <path d="M322.394,258.137L301.073,245.746L330.847,228.556L352.166,240.947L322.394,258.137Z" style="fill:rgb(103,152,209);fill-rule:nonzero;"/>
            </g>
            <g transform="matrix(4.16667,0,0,4.16667,-4.54747e-13,-7.95808e-13)">
                <path d="M321.537,259.617L300.219,247.227L300.122,213.014L321.44,225.404L321.537,259.617Z" style="fill:rgb(82,134,197);fill-rule:nonzero;"/>
            </g>
            <g transform="matrix(4.16667,0,0,4.16667,-4.54747e-13,-7.95808e-13)">
                <path d="M314.97,270.878L293.648,258.488L293.53,216.819L314.852,229.209L314.97,270.878Z" style="fill:rgb(82,134,197);fill-rule:nonzero;"/>
            </g>
            <g transform="matrix(4.16667,0,0,4.16667,-4.54747e-13,-7.95808e-13)">
                <path d="M321.44,225.404L321.537,259.617L351.312,242.427L351.333,249.884L314.97,270.878L314.852,229.209L321.44,225.404Z" style="fill:white;fill-rule:nonzero;"/>
            </g>
            <g transform="matrix(4.16667,0,0,4.16667,-4.54747e-13,-7.95808e-13)">
                <path d="M314.852,229.209L293.53,216.819L300.122,213.014L321.44,225.404L314.852,229.209Z" style="fill:rgb(103,152,209);fill-rule:nonzero;"/>
            </g>
            <g transform="matrix(4.16667,0,0,4.16667,-4.54747e-13,-7.95808e-13)">
                <path d="M313.991,228.718L292.67,216.329L300.976,211.534L322.297,223.923L313.991,228.718Z" style="fill:rgb(103,152,209);fill-rule:nonzero;"/>
            </g>
            <g transform="matrix(4.16667,0,0,4.16667,-4.54747e-13,-7.95808e-13)">
                <path d="M314.114,272.358L292.795,259.969L292.67,216.329L313.991,228.718L314.114,272.358Z" style="fill:rgb(82,134,197);fill-rule:nonzero;"/>
            </g>
            <g transform="matrix(4.16667,0,0,4.16667,-4.54747e-13,-7.95808e-13)">
                <path d="M351.333,249.884L351.312,242.427L321.537,259.617L321.44,225.404L314.852,229.209L314.97,270.878L351.333,249.884ZM322.394,258.137L352.166,240.947L352.193,250.374L314.114,272.358L313.991,228.718L322.297,223.923L322.394,258.137Z" style="fill:white;fill-rule:nonzero;"/>
            </g>
        </g>
    </g>
    <g transform="matrix(1,0,0,1,-475.767,-556.329)">
        <g id="L2" serif:id="L">
            <g transform="matrix(4.16667,0,0,4.16667,-4.54747e-13,-7.95808e-13)">
                <path d="M351.333,249.884L330.013,237.493L329.991,230.037L351.312,242.427L351.333,249.884Z" style="fill:rgb(82,134,197);fill-rule:nonzero;"/>
            </g>
            <g transform="matrix(4.16667,0,0,4.16667,-4.54747e-13,-7.95808e-13)">
                <path d="M314.97,270.878L293.648,258.488L330.013,237.493L351.333,249.884L314.97,270.878Z" style="fill:rgb(103,152,209);fill-rule:nonzero;"/>
            </g>
            <g transform="matrix(4.16667,0,0,4.16667,-4.54747e-13,-7.95808e-13)">
                <path d="M321.537,259.617L300.219,247.227L329.991,230.037L351.312,242.427L321.537,259.617Z" style="fill:rgb(103,152,209);fill-rule:nonzero;"/>
            </g>
            <g transform="matrix(4.16667,0,0,4.16667,-4.54747e-13,-7.95808e-13)">
                <path d="M322.394,258.137L301.073,245.746L330.847,228.556L352.166,240.947L322.394,258.137Z" style="fill:rgb(103,152,209);fill-rule:nonzero;"/>
            </g>
            <g transform="matrix(4.16667,0,0,4.16667,-4.54747e-13,-7.95808e-13)">
                <path d="M321.537,259.617L300.219,247.227L300.122,213.014L321.44,225.404L321.537,259.617Z" style="fill:rgb(82,134,197);fill-rule:nonzero;"/>
            </g>
            <g transform="matrix(4.16667,0,0,4.16667,-4.54747e-13,-7.95808e-13)">
                <path d="M314.97,270.878L293.648,258.488L293.53,216.819L314.852,229.209L314.97,270.878Z" style="fill:rgb(82,134,197);fill-rule:nonzero;"/>
            </g>
            <g transform="matrix(4.16667,0,0,4.16667,-4.54747e-13,-7.95808e-13)">
                <path d="M321.44,225.404L321.537,259.617L351.312,242.427L351.333,249.884L314.97,270.878L314.852,229.209L321.44,225.404Z" style="fill:white;fill-rule:nonzero;"/>
            </g>
            <g transform="matrix(4.16667,0,0,4.16667,-4.54747e-13,-7.95808e-13)">
                <path d="M314.852,229.209L293.53,216.819L300.122,213.014L321.44,225.404L314.852,229.209Z" style="fill:rgb(103,152,209);fill-rule:nonzero;"/>
            </g>
            <g transform="matrix(4.16667,0,0,4.16667,-4.54747e-13,-7.95808e-13)">
                <path d="M313.991,228.718L292.67,216.329L300.976,211.534L322.297,223.923L313.991,228.718Z" style="fill:rgb(103,152,209);fill-rule:nonzero;"/>
            </g>
            <g transform="matrix(4.16667,0,0,4.16667,-4.54747e-13,-7.95808e-13)">
                <path d="M314.114,272.358L292.795,259.969L292.67,216.329L313.991,228.718L314.114,272.358Z" style="fill:rgb(82,134,197);fill-rule:nonzero;"/>
            </g>
            <g transform="matrix(4.16667,0,0,4.16667,-4.54747e-13,-7.95808e-13)">
                <path d="M351.333,249.884L351.312,242.427L321.537,259.617L321.44,225.404L314.852,229.209L314.97,270.878L351.333,249.884ZM322.394,258.137L352.166,240.947L352.193,250.374L314.114,272.358L313.991,228.718L322.297,223.923L322.394,258.137Z" style="fill:white;fill-rule:nonzero;"/>
            </g>
        </g>
    </g>
    <g transform="matrix(1,0,0,1,-4039.04,-836.621)">
        <g id="R">
            <g transform="matrix(4.16667,0,0,4.16667,-4.54747e-13,-7.95808e-13)">
                <path d="M1021.44,260.133L1000.12,247.743L1006.71,243.938L1028.03,256.329L1021.44,260.133Z" style="fill:rgb(103,152,209);fill-rule:nonzero;"/>
            </g>
            <g transform="matrix(4.16667,0,0,4.16667,-4.54747e-13,-7.95808e-13)">
                <path d="M1028.03,256.329L1006.71,243.938L1006.67,227.934L1027.99,240.324L1028.03,256.329Z" style="fill:rgb(82,134,197);fill-rule:nonzero;"/>
            </g>
            <g transform="matrix(4.16667,0,0,4.16667,-4.54747e-13,-7.95808e-13)">
                <path d="M1021.44,260.133L1000.12,247.743L1000.08,231.737L1021.4,244.129L1021.44,260.133Z" style="fill:rgb(82,134,197);fill-rule:nonzero;"/>
            </g>
            <g transform="matrix(4.16667,0,0,4.16667,-4.54747e-13,-7.95808e-13)">
                <path d="M1021.4,244.129L1000.08,231.737L1006.67,227.934L1027.99,240.324L1021.4,244.129Z" style="fill:rgb(103,152,209);fill-rule:nonzero;"/>
            </g>
            <g transform="matrix(4.16667,0,0,4.16667,-4.54747e-13,-7.95808e-13)">
                <path d="M1021.44,260.133L1021.4,244.129L1027.99,240.324L1028.03,256.329L1021.44,260.133Z" style="fill:white;fill-rule:nonzero;"/>
            </g>
            <g transform="matrix(4.16667,0,0,4.16667,-4.54747e-13,-7.95808e-13)">
                <path d="M1020.59,261.612L999.267,249.224L999.219,232.232L1020.54,244.624L1020.59,261.612Z" style="fill:rgb(82,134,197);fill-rule:nonzero;"/>
            </g>
            <g transform="matrix(4.16667,0,0,4.16667,-4.54747e-13,-7.95808e-13)">
                <path d="M1021.39,243.143L1000.07,230.753L1007.52,226.453L1028.84,238.843L1021.39,243.143Z" style="fill:rgb(103,152,209);fill-rule:nonzero;"/>
            </g>
            <g transform="matrix(4.16667,0,0,4.16667,-4.54747e-13,-7.95808e-13)">
                <path d="M1020.54,243.638L999.216,231.248L999.193,223.676L1020.51,236.064L1020.54,243.638Z" style="fill:rgb(82,134,197);fill-rule:nonzero;"/>
            </g>
            <g transform="matrix(4.16667,0,0,4.16667,-4.54747e-13,-7.95808e-13)">
                <path d="M1021.37,234.584L1000.05,222.194L1006.64,218.39L1027.96,230.779L1021.37,234.584Z" style="fill:rgb(103,152,209);fill-rule:nonzero;"/>
            </g>
            <g transform="matrix(4.16667,0,0,4.16667,-4.54747e-13,-7.95808e-13)">
                <path d="M1027.96,230.779L1006.64,218.39L1006.62,210.826L1027.94,223.217L1027.96,230.779Z" style="fill:rgb(82,134,197);fill-rule:nonzero;"/>
            </g>
            <g transform="matrix(4.16667,0,0,4.16667,-4.54747e-13,-7.95808e-13)">
                <path d="M1021.35,227.021L1027.94,223.217L1027.96,230.779L1021.37,234.584L1021.35,227.021Z" style="fill:white;fill-rule:nonzero;"/>
            </g>
            <g transform="matrix(4.16667,0,0,4.16667,-4.54747e-13,-7.95808e-13)">
                <path d="M1021.35,227.021L1000.03,214.631L1006.62,210.826L1027.94,223.217L1021.35,227.021Z" style="fill:rgb(103,152,209);fill-rule:nonzero;"/>
            </g>
            <g transform="matrix(4.16667,0,0,4.16667,-4.54747e-13,-7.95808e-13)">
                <path d="M1021.37,234.584L1000.05,222.194L1000.03,214.631L1021.35,227.021L1021.37,234.584Z" style="fill:rgb(82,134,197);fill-rule:nonzero;"/>
            </g>
            <g transform="matrix(4.16667,0,0,4.16667,-4.54747e-13,-7.95808e-13)">
                <path d="M991.668,277.323L970.348,264.932L976.938,261.128L998.258,273.519L991.668,277.323Z" style="fill:rgb(103,152,209);fill-rule:nonzero;"/>
            </g>
            <g transform="matrix(4.16667,0,0,4.16667,-4.54747e-13,-7.95808e-13)">
                <path d="M1020.51,235.079L999.191,222.689L999.17,215.126L1020.49,227.516L1020.51,235.079Z" style="fill:rgb(82,134,197);fill-rule:nonzero;"/>
            </g>
            <g transform="matrix(4.16667,0,0,4.16667,-4.54747e-13,-7.95808e-13)">
                <path d="M1021.34,226.034L1000.02,213.646L1007.47,209.347L1028.79,221.736L1021.34,226.034Z" style="fill:rgb(103,152,209);fill-rule:nonzero;"/>
            </g>
            <g transform="matrix(4.16667,0,0,4.16667,-4.54747e-13,-7.95808e-13)">
                <path d="M1020.49,226.53L999.168,214.141L999.146,206.568L1020.46,218.959L1020.49,226.53Z" style="fill:rgb(82,134,197);fill-rule:nonzero;"/>
            </g>
            <g transform="matrix(4.16667,0,0,4.16667,-4.54747e-13,-7.95808e-13)">
                <path d="M998.258,273.519L976.938,261.128L976.889,244.138L998.21,256.527L998.258,273.519Z" style="fill:rgb(82,134,197);fill-rule:nonzero;"/>
            </g>
            <g transform="matrix(4.16667,0,0,4.16667,-4.54747e-13,-7.95808e-13)">
                <path d="M998.21,256.527L976.889,244.138L999.216,231.248L1020.54,243.638L998.21,256.527Z" style="fill:rgb(103,152,209);fill-rule:nonzero;"/>
            </g>
            <g transform="matrix(4.16667,0,0,4.16667,-4.54747e-13,-7.95808e-13)">
                <path d="M998.188,248.955L976.868,236.565L999.193,223.676L1020.51,236.064L998.188,248.955Z" style="fill:rgb(103,152,209);fill-rule:nonzero;"/>
            </g>
            <g transform="matrix(4.16667,0,0,4.16667,-4.54747e-13,-7.95808e-13)">
                <path d="M999.042,247.475L977.724,235.084L999.191,222.689L1020.51,235.079L999.042,247.475Z" style="fill:rgb(103,152,209);fill-rule:nonzero;"/>
            </g>
            <g transform="matrix(4.16667,0,0,4.16667,-4.54747e-13,-7.95808e-13)">
                <path d="M998.161,239.421L976.84,227.031L999.168,214.141L1020.49,226.53L998.161,239.421Z" style="fill:rgb(103,152,209);fill-rule:nonzero;"/>
            </g>
            <g transform="matrix(4.16667,0,0,4.16667,-4.54747e-13,-7.95808e-13)">
                <path d="M998.188,248.955L976.868,236.565L976.84,227.031L998.161,239.421L998.188,248.955Z" style="fill:rgb(82,134,197);fill-rule:nonzero;"/>
            </g>
            <g transform="matrix(4.16667,0,0,4.16667,-4.54747e-13,-7.95808e-13)">
                <path d="M991.668,277.323L991.55,235.653L1020.46,218.959L1020.49,226.53L998.161,239.421L998.188,248.955L1020.51,236.064L1020.54,243.638L998.21,256.527L998.258,273.519L991.668,277.323Z" style="fill:white;fill-rule:nonzero;"/>
            </g>
            <g transform="matrix(4.16667,0,0,4.16667,-4.54747e-13,-7.95808e-13)">
                <path d="M991.55,235.653L970.229,223.265L999.146,206.568L1020.46,218.959L991.55,235.653Z" style="fill:rgb(103,152,209);fill-rule:nonzero;"/>
            </g>
            <g transform="matrix(4.16667,0,0,4.16667,-4.54747e-13,-7.95808e-13)">
                <path d="M991.668,277.323L970.348,264.932L970.229,223.265L991.55,235.653L991.668,277.323Z" style="fill:rgb(82,134,197);fill-rule:nonzero;"/>
            </g>
            <g transform="matrix(4.16667,0,0,4.16667,-4.54747e-13,-7.95808e-13)">
                <path d="M990.813,278.804L969.493,266.413L969.369,222.773L990.689,235.163L990.813,278.804Z" style="fill:rgb(82,134,197);fill-rule:nonzero;"/>
            </g>
            <g transform="matrix(4.16667,0,0,4.16667,-4.54747e-13,-7.95808e-13)">
                <path d="M1021.35,227.021L1021.37,234.584L1027.96,230.779L1027.94,223.217L1021.35,227.021ZM1027.99,240.324L1021.4,244.129L1021.44,260.133L1028.03,256.329L1027.99,240.324ZM1020.51,235.079L1020.49,227.516L999.021,239.911L999.042,247.475L1020.51,235.079ZM1020.49,226.53L1020.46,218.959L991.55,235.653L991.668,277.323L998.258,273.519L998.21,256.527L1020.54,243.638L1020.51,236.064L998.188,248.955L998.161,239.421L1020.49,226.53ZM1028.82,231.27L1021.37,235.569L1021.39,243.143L1028.84,238.843L1028.89,256.819L1020.59,261.612L1020.54,244.624L999.07,257.018L999.118,274.008L990.813,278.804L990.689,235.163L1021.32,217.479L1021.34,226.034L1028.79,221.736L1028.82,231.27Z" style="fill:white;fill-rule:nonzero;"/>
            </g>
            <g transform="matrix(4.16667,0,0,4.16667,-4.54747e-13,-7.95808e-13)">
                <path d="M990.689,235.163L969.369,222.773L1000,205.089L1021.32,217.479L990.689,235.163Z" style="fill:rgb(103,152,209);fill-rule:nonzero;"/>
            </g>
        </g>
    </g>
    <g transform="matrix(1,0,0,1,712.008,-1128.58)">
        <g id="S">
            <g transform="matrix(4.16667,0,0,4.16667,-4.54747e-13,-7.95808e-13)">
                <path d="M118.319,408.716L96.999,396.326L96.977,388.869L118.298,401.26L118.319,408.716Z" style="fill:rgb(82,134,197);fill-rule:nonzero;"/>
            </g>
            <g transform="matrix(4.16667,0,0,4.16667,-4.54747e-13,-7.95808e-13)">
                <path d="M119.153,399.779L97.833,387.39L104.422,383.585L125.742,395.975L119.153,399.779Z" style="fill:rgb(103,152,209);fill-rule:nonzero;"/>
            </g>
            <g transform="matrix(4.16667,0,0,4.16667,-4.54747e-13,-7.95808e-13)">
                <path d="M125.742,395.975L104.422,383.585L104.4,376.021L125.721,388.411L125.742,395.975Z" style="fill:rgb(82,134,197);fill-rule:nonzero;"/>
            </g>
            <g transform="matrix(4.16667,0,0,4.16667,-4.54747e-13,-7.95808e-13)">
                <path d="M119.131,392.216L97.812,379.827L104.4,376.021L125.721,388.411L119.131,392.216Z" style="fill:rgb(103,152,209);fill-rule:nonzero;"/>
            </g>
            <g transform="matrix(4.16667,0,0,4.16667,-4.54747e-13,-7.95808e-13)">
                <path d="M119.153,399.779L97.833,387.39L97.812,379.827L119.131,392.216L119.153,399.779Z" style="fill:rgb(82,134,197);fill-rule:nonzero;"/>
            </g>
            <g transform="matrix(4.16667,0,0,4.16667,-4.54747e-13,-7.95808e-13)">
                <path d="M119.153,399.779L119.131,392.216L125.721,388.411L125.742,395.975L119.153,399.779Z" style="fill:white;fill-rule:nonzero;"/>
            </g>
            <g transform="matrix(4.16667,0,0,4.16667,-4.54747e-13,-7.95808e-13)">
                <path d="M118.296,400.274L96.975,387.884L96.954,380.322L118.274,392.71L118.296,400.274Z" style="fill:rgb(82,134,197);fill-rule:nonzero;"/>
            </g>
            <g transform="matrix(4.16667,0,0,4.16667,-4.54747e-13,-7.95808e-13)">
                <path d="M119.129,391.229L97.807,378.842L105.257,374.542L126.575,386.931L119.129,391.229Z" style="fill:rgb(103,152,209);fill-rule:nonzero;"/>
            </g>
            <g transform="matrix(4.16667,0,0,4.16667,-4.54747e-13,-7.95808e-13)">
                <path d="M118.271,391.725L96.952,379.337L96.929,371.764L118.249,384.153L118.271,391.725Z" style="fill:rgb(82,134,197);fill-rule:nonzero;"/>
            </g>
            <g transform="matrix(4.16667,0,0,4.16667,-4.54747e-13,-7.95808e-13)">
                <path d="M89.402,425.41L68.083,413.021L96.999,396.326L118.319,408.716L89.402,425.41Z" style="fill:rgb(103,152,209);fill-rule:nonzero;"/>
            </g>
            <g transform="matrix(4.16667,0,0,4.16667,-4.54747e-13,-7.95808e-13)">
                <path d="M125.67,370.32L104.35,357.93L104.328,350.357L125.648,362.748L125.67,370.32Z" style="fill:rgb(82,134,197);fill-rule:nonzero;"/>
            </g>
            <g transform="matrix(4.16667,0,0,4.16667,-4.54747e-13,-7.95808e-13)">
                <path d="M89.381,417.954L68.061,405.564L96.977,388.869L118.298,401.26L89.381,417.954Z" style="fill:rgb(103,152,209);fill-rule:nonzero;"/>
            </g>
            <g transform="matrix(4.16667,0,0,4.16667,-4.54747e-13,-7.95808e-13)">
                <path d="M89.402,425.41L89.381,417.954L118.298,401.26L118.319,408.716L89.402,425.41Z" style="fill:white;fill-rule:nonzero;"/>
            </g>
            <g transform="matrix(4.16667,0,0,4.16667,-4.54747e-13,-7.95808e-13)">
                <path d="M89.402,425.41L68.083,413.021L68.061,405.564L89.381,417.954L89.402,425.41Z" style="fill:rgb(82,134,197);fill-rule:nonzero;"/>
            </g>
            <g transform="matrix(4.16667,0,0,4.16667,-4.54747e-13,-7.95808e-13)">
                <path d="M88.52,417.464L67.201,405.074L96.975,387.884L118.296,400.274L88.52,417.464Z" style="fill:rgb(103,152,209);fill-rule:nonzero;"/>
            </g>
            <g transform="matrix(4.16667,0,0,4.16667,-4.54747e-13,-7.95808e-13)">
                <path d="M96.801,404.121L75.481,391.731L96.952,379.337L118.271,391.725L96.801,404.121Z" style="fill:rgb(103,152,209);fill-rule:nonzero;"/>
            </g>
            <g transform="matrix(4.16667,0,0,4.16667,-4.54747e-13,-7.95808e-13)">
                <path d="M88.547,426.891L67.227,414.502L67.201,405.074L88.52,417.464L88.547,426.891Z" style="fill:rgb(82,134,197);fill-rule:nonzero;"/>
            </g>
            <g transform="matrix(4.16667,0,0,4.16667,-4.54747e-13,-7.95808e-13)">
                <path d="M96.801,404.121L96.78,396.548L118.249,384.153L118.271,391.725L96.801,404.121Z" style="fill:white;fill-rule:nonzero;"/>
            </g>
            <g transform="matrix(4.16667,0,0,4.16667,-4.54747e-13,-7.95808e-13)">
                <path d="M96.78,396.548L75.46,384.159L96.929,371.764L118.249,384.153L96.78,396.548Z" style="fill:rgb(103,152,209);fill-rule:nonzero;"/>
            </g>
            <g transform="matrix(4.16667,0,0,4.16667,-4.54747e-13,-7.95808e-13)">
                <path d="M96.801,404.121L75.481,391.731L75.46,384.159L96.78,396.548L96.801,404.121Z" style="fill:rgb(82,134,197);fill-rule:nonzero;"/>
            </g>
            <g transform="matrix(4.16667,0,0,4.16667,-4.54747e-13,-7.95808e-13)">
                <path d="M95.938,405.605L74.619,393.216L74.594,384.658L95.915,397.047L95.938,405.605Z" style="fill:rgb(82,134,197);fill-rule:nonzero;"/>
            </g>
            <g transform="matrix(4.16667,0,0,4.16667,-4.54747e-13,-7.95808e-13)">
                <path d="M96.776,395.562L75.458,383.174L97.784,370.282L119.105,382.672L96.776,395.562Z" style="fill:rgb(103,152,209);fill-rule:nonzero;"/>
            </g>
            <g transform="matrix(4.16667,0,0,4.16667,-4.54747e-13,-7.95808e-13)">
                <path d="M96.752,387.014L75.432,374.625L104.35,357.93L125.67,370.32L96.752,387.014Z" style="fill:rgb(103,152,209);fill-rule:nonzero;"/>
            </g>
            <g transform="matrix(4.16667,0,0,4.16667,-4.54747e-13,-7.95808e-13)">
                <path d="M89.308,392.299L67.988,379.91L74.57,376.11L95.89,388.498L89.308,392.299Z" style="fill:rgb(103,152,209);fill-rule:nonzero;"/>
            </g>
            <g transform="matrix(4.16667,0,0,4.16667,-4.54747e-13,-7.95808e-13)">
                <path d="M89.33,399.862L68.008,387.472L67.988,379.91L89.308,392.299L89.33,399.862Z" style="fill:rgb(82,134,197);fill-rule:nonzero;"/>
            </g>
            <g transform="matrix(4.16667,0,0,4.16667,-4.54747e-13,-7.95808e-13)">
                <path d="M89.308,392.299L67.988,379.91L74.57,376.11L95.89,388.498L89.308,392.299Z" style="fill:rgb(103,152,209);fill-rule:nonzero;"/>
            </g>
            <g transform="matrix(4.16667,0,0,4.16667,-4.54747e-13,-7.95808e-13)">
                <path d="M89.33,399.862L68.008,387.472L67.988,379.91L89.308,392.299L89.33,399.862Z" style="fill:rgb(82,134,197);fill-rule:nonzero;"/>
            </g>
            <g transform="matrix(4.16667,0,0,4.16667,-4.54747e-13,-7.95808e-13)">
                <path d="M96.752,387.014L75.432,374.625L75.411,367.053L96.731,379.443L96.752,387.014Z" style="fill:rgb(82,134,197);fill-rule:nonzero;"/>
            </g>
            <g transform="matrix(4.16667,0,0,4.16667,-4.54747e-13,-7.95808e-13)">
                <path d="M96.731,379.443L75.411,367.053L104.328,350.357L125.648,362.748L96.731,379.443Z" style="fill:rgb(103,152,209);fill-rule:nonzero;"/>
            </g>
            <g transform="matrix(4.16667,0,0,4.16667,-4.54747e-13,-7.95808e-13)">
                <path d="M96.731,379.443L125.648,362.748L125.67,370.32L96.752,387.014L96.731,379.443Z" style="fill:white;fill-rule:nonzero;"/>
            </g>
            <g transform="matrix(4.16667,0,0,4.16667,-4.54747e-13,-7.95808e-13)">
                <path d="M119.131,392.216L119.153,399.779L125.742,395.975L125.721,388.411L119.131,392.216ZM118.249,384.153L96.78,396.548L96.801,404.121L118.271,391.725L118.249,384.153ZM118.319,408.716L118.298,401.26L89.381,417.954L89.402,425.41L118.319,408.716ZM96.731,379.443L96.752,387.014L125.67,370.32L125.648,362.748L96.731,379.443ZM126.53,370.81L96.754,387.999L96.776,395.562L119.105,382.672L119.129,391.229L126.575,386.931L126.603,396.464L119.156,400.765L119.18,409.206L88.547,426.891L88.52,417.464L118.296,400.274L118.274,392.71L95.938,405.605L95.915,397.047L88.475,401.343L88.448,391.809L95.888,387.514L95.863,378.957L126.504,361.268L126.53,370.81Z" style="fill:white;fill-rule:nonzero;"/>
            </g>
            <g transform="matrix(4.16667,0,0,4.16667,-4.54747e-13,-7.95808e-13)">
                <path d="M95.89,388.498L95.912,396.063L89.33,399.862L89.308,392.299L95.89,388.498Z" style="fill:white;fill-rule:nonzero;"/>
            </g>
            <g transform="matrix(4.16667,0,0,4.16667,-4.54747e-13,-7.95808e-13)">
                <path d="M95.912,396.063L89.33,399.862L89.308,392.299L95.89,388.498L95.912,396.063Z" style="fill:white;fill-rule:nonzero;"/>
            </g>
            <g transform="matrix(4.16667,0,0,4.16667,-4.54747e-13,-7.95808e-13)">
                <path d="M88.448,391.809L67.127,379.42L74.567,375.125L95.888,387.514L88.448,391.809Z" style="fill:rgb(103,152,209);fill-rule:nonzero;"/>
            </g>
            <g transform="matrix(4.16667,0,0,4.16667,-4.54747e-13,-7.95808e-13)">
                <path d="M88.475,401.343L67.155,388.952L67.127,379.42L88.448,391.809L88.475,401.343Z" style="fill:rgb(82,134,197);fill-rule:nonzero;"/>
            </g>
            <g transform="matrix(4.16667,0,0,4.16667,-4.54747e-13,-7.95808e-13)">
                <path d="M95.863,378.957L74.543,366.566L105.183,348.877L126.504,361.268L95.863,378.957Z" style="fill:rgb(103,152,209);fill-rule:nonzero;"/>
            </g>
            <g transform="matrix(4.16667,0,0,4.16667,-4.54747e-13,-7.95808e-13)">
                <path d="M95.888,387.514L74.567,375.125L74.543,366.566L95.863,378.957L95.888,387.514Z" style="fill:rgb(82,134,197);fill-rule:nonzero;"/>
            </g>
        </g>
    </g>
    <g transform="matrix(1,0,0,1,241.971,-1435.74)">
        <g id="T">
            <g transform="matrix(4.16667,0,0,4.16667,-4.54747e-13,-7.95808e-13)">
                <path d="M217.121,421.113L195.802,408.724L202.384,404.923L223.704,417.313L217.121,421.113Z" style="fill:rgb(103,152,209);fill-rule:nonzero;"/>
            </g>
            <g transform="matrix(4.16667,0,0,4.16667,-4.54747e-13,-7.95808e-13)">
                <path d="M238.494,374.621L217.174,362.23L217.152,354.659L238.473,367.049L238.494,374.621Z" style="fill:rgb(82,134,197);fill-rule:nonzero;"/>
            </g>
            <g transform="matrix(4.16667,0,0,4.16667,-4.54747e-13,-7.95808e-13)">
                <path d="M223.607,383.215L202.287,370.825L217.174,362.23L238.494,374.621L223.607,383.215Z" style="fill:rgb(103,152,209);fill-rule:nonzero;"/>
            </g>
            <g transform="matrix(4.16667,0,0,4.16667,-4.54747e-13,-7.95808e-13)">
                <path d="M223.704,417.313L202.384,404.923L202.287,370.825L223.607,383.215L223.704,417.313Z" style="fill:rgb(82,134,197);fill-rule:nonzero;"/>
            </g>
            <g transform="matrix(4.16667,0,0,4.16667,-4.54747e-13,-7.95808e-13)">
                <path d="M217.121,421.113L195.802,408.724L195.705,374.625L217.025,387.016L217.121,421.113Z" style="fill:rgb(82,134,197);fill-rule:nonzero;"/>
            </g>
            <g transform="matrix(4.16667,0,0,4.16667,-4.54747e-13,-7.95808e-13)">
                <path d="M216.267,422.593L194.947,410.203L194.851,376.105L216.17,388.496L216.267,422.593Z" style="fill:rgb(82,134,197);fill-rule:nonzero;"/>
            </g>
            <g transform="matrix(4.16667,0,0,4.16667,-4.54747e-13,-7.95808e-13)">
                <path d="M202.138,395.61L180.819,383.221L195.705,374.625L217.025,387.016L202.138,395.61Z" style="fill:rgb(103,152,209);fill-rule:nonzero;"/>
            </g>
            <g transform="matrix(4.16667,0,0,4.16667,-4.54747e-13,-7.95808e-13)">
                <path d="M202.116,388.038L180.796,375.649L217.152,354.659L238.473,367.049L202.116,388.038Z" style="fill:rgb(103,152,209);fill-rule:nonzero;"/>
            </g>
            <g transform="matrix(4.16667,0,0,4.16667,-4.54747e-13,-7.95808e-13)">
                <path d="M202.138,395.61L180.819,383.221L180.796,375.649L202.116,388.038L202.138,395.61Z" style="fill:rgb(82,134,197);fill-rule:nonzero;"/>
            </g>
            <g transform="matrix(4.16667,0,0,4.16667,-4.54747e-13,-7.95808e-13)">
                <path d="M238.473,367.049L238.494,374.621L223.607,383.215L223.704,417.313L217.121,421.113L217.025,387.016L202.138,395.61L202.116,388.038L238.473,367.049Z" style="fill:white;fill-rule:nonzero;"/>
            </g>
            <g transform="matrix(4.16667,0,0,4.16667,-4.54747e-13,-7.95808e-13)">
                <path d="M201.284,397.091L179.964,384.7L179.936,375.158L201.257,387.548L201.284,397.091Z" style="fill:rgb(82,134,197);fill-rule:nonzero;"/>
            </g>
            <g transform="matrix(4.16667,0,0,4.16667,-4.54747e-13,-7.95808e-13)">
                <path d="M238.494,374.621L238.473,367.049L202.116,388.038L202.138,395.61L217.025,387.016L217.121,421.113L223.704,417.313L223.607,383.215L238.494,374.621ZM201.257,387.548L239.335,365.563L239.361,375.106L224.468,383.706L224.564,417.803L216.267,422.593L216.17,388.496L201.284,397.091L201.257,387.548Z" style="fill:white;fill-rule:nonzero;"/>
            </g>
            <g transform="matrix(4.16667,0,0,4.16667,-4.54747e-13,-7.95808e-13)">
                <path d="M201.257,387.548L179.936,375.158L218.015,353.175L239.335,365.563L201.257,387.548Z" style="fill:rgb(103,152,209);fill-rule:nonzero;"/>
            </g>
        </g>
    </g>
    <g transform="matrix(1,0,0,1,-971.921,-1137.55)">
        <g id="U">
            <g transform="matrix(4.16667,0,0,4.16667,-4.54747e-13,-7.95808e-13)">
                <path d="M343.901,410.862L322.58,398.472L322.559,391.015L343.879,403.405L343.901,410.862Z" style="fill:rgb(82,134,197);fill-rule:nonzero;"/>
            </g>
            <g transform="matrix(4.16667,0,0,4.16667,-4.54747e-13,-7.95808e-13)">
                <path d="M344.736,401.925L323.416,389.534L329.998,385.734L351.317,398.124L344.736,401.925Z" style="fill:rgb(103,152,209);fill-rule:nonzero;"/>
            </g>
            <g transform="matrix(4.16667,0,0,4.16667,-4.54747e-13,-7.95808e-13)">
                <path d="M322.424,423.261L301.105,410.872L322.58,398.472L343.901,410.862L322.424,423.261Z" style="fill:rgb(103,152,209);fill-rule:nonzero;"/>
            </g>
            <g transform="matrix(4.16667,0,0,4.16667,-4.54747e-13,-7.95808e-13)">
                <path d="M322.424,423.261L322.403,415.806L343.879,403.405L343.901,410.862L322.424,423.261Z" style="fill:white;fill-rule:nonzero;"/>
            </g>
            <g transform="matrix(4.16667,0,0,4.16667,-4.54747e-13,-7.95808e-13)">
                <path d="M322.424,423.261L301.105,410.872L301.083,403.415L322.403,415.806L322.424,423.261Z" style="fill:rgb(82,134,197);fill-rule:nonzero;"/>
            </g>
            <g transform="matrix(4.16667,0,0,4.16667,-4.54747e-13,-7.95808e-13)">
                <path d="M322.403,415.806L301.083,403.415L322.559,391.015L343.879,403.405L322.403,415.806Z" style="fill:rgb(103,152,209);fill-rule:nonzero;"/>
            </g>
            <g transform="matrix(4.16667,0,0,4.16667,-4.54747e-13,-7.95808e-13)">
                <path d="M321.57,424.741L300.25,412.353L300.226,403.911L321.546,416.3L321.57,424.741Z" style="fill:rgb(82,134,197);fill-rule:nonzero;"/>
            </g>
            <g transform="matrix(4.16667,0,0,4.16667,-4.54747e-13,-7.95808e-13)">
                <path d="M322.4,414.819L301.081,402.431L322.556,390.029L343.877,402.421L322.4,414.819Z" style="fill:rgb(103,152,209);fill-rule:nonzero;"/>
            </g>
            <g transform="matrix(4.16667,0,0,4.16667,-4.54747e-13,-7.95808e-13)">
                <path d="M351.317,398.124L329.998,385.734L329.903,352.507L351.223,364.896L351.317,398.124Z" style="fill:rgb(82,134,197);fill-rule:nonzero;"/>
            </g>
            <g transform="matrix(4.16667,0,0,4.16667,-4.54747e-13,-7.95808e-13)">
                <path d="M344.641,368.697L323.321,356.307L329.903,352.507L351.223,364.896L344.641,368.697Z" style="fill:rgb(103,152,209);fill-rule:nonzero;"/>
            </g>
            <g transform="matrix(4.16667,0,0,4.16667,-4.54747e-13,-7.95808e-13)">
                <path d="M344.736,401.925L323.416,389.534L323.321,356.307L344.641,368.697L344.736,401.925Z" style="fill:rgb(82,134,197);fill-rule:nonzero;"/>
            </g>
            <g transform="matrix(4.16667,0,0,4.16667,-4.54747e-13,-7.95808e-13)">
                <path d="M314.961,419.114L293.64,406.726L300.223,402.925L321.543,415.313L314.961,419.114Z" style="fill:rgb(103,152,209);fill-rule:nonzero;"/>
            </g>
            <g transform="matrix(4.16667,0,0,4.16667,-4.54747e-13,-7.95808e-13)">
                <path d="M321.543,415.313L300.223,402.925L300.128,369.697L321.45,382.087L321.543,415.313Z" style="fill:rgb(82,134,197);fill-rule:nonzero;"/>
            </g>
            <g transform="matrix(4.16667,0,0,4.16667,-4.54747e-13,-7.95808e-13)">
                <path d="M314.961,419.114L293.64,406.726L293.546,373.496L314.867,385.887L314.961,419.114Z" style="fill:rgb(82,134,197);fill-rule:nonzero;"/>
            </g>
            <g transform="matrix(4.16667,0,0,4.16667,-4.54747e-13,-7.95808e-13)">
                <path d="M314.867,385.887L293.546,373.496L300.128,369.697L321.45,382.087L314.867,385.887Z" style="fill:rgb(103,152,209);fill-rule:nonzero;"/>
            </g>
            <g transform="matrix(4.16667,0,0,4.16667,-4.54747e-13,-7.95808e-13)">
                <path d="M343.901,410.862L343.879,403.405L322.403,415.806L322.424,423.261L343.901,410.862ZM351.317,398.124L351.223,364.896L344.641,368.697L344.736,401.925L351.317,398.124ZM321.543,415.313L321.45,382.087L314.867,385.887L314.961,419.114L321.543,415.313ZM343.78,368.207L352.078,363.416L352.176,398.616L344.739,402.909L344.762,411.351L321.57,424.741L321.546,416.3L314.106,420.595L314.006,385.396L322.303,380.606L322.4,414.819L343.877,402.421L343.78,368.207Z" style="fill:white;fill-rule:nonzero;"/>
            </g>
            <g transform="matrix(4.16667,0,0,4.16667,-4.54747e-13,-7.95808e-13)">
                <path d="M344.641,368.697L351.223,364.896L351.317,398.124L344.736,401.925L344.641,368.697Z" style="fill:white;fill-rule:nonzero;"/>
            </g>
            <g transform="matrix(4.16667,0,0,4.16667,-4.54747e-13,-7.95808e-13)">
                <path d="M343.78,368.207L322.459,355.817L330.756,351.026L352.078,363.416L343.78,368.207Z" style="fill:rgb(103,152,209);fill-rule:nonzero;"/>
            </g>
            <g transform="matrix(4.16667,0,0,4.16667,-4.54747e-13,-7.95808e-13)">
                <path d="M343.877,402.421L322.556,390.029L322.459,355.817L343.78,368.207L343.877,402.421Z" style="fill:rgb(82,134,197);fill-rule:nonzero;"/>
            </g>
            <g transform="matrix(4.16667,0,0,4.16667,-4.54747e-13,-7.95808e-13)">
                <path d="M314.961,419.114L314.867,385.887L321.45,382.087L321.543,415.313L314.961,419.114Z" style="fill:white;fill-rule:nonzero;"/>
            </g>
            <g transform="matrix(4.16667,0,0,4.16667,-4.54747e-13,-7.95808e-13)">
                <path d="M314.106,420.595L292.787,408.204L292.687,373.007L314.006,385.396L314.106,420.595Z" style="fill:rgb(82,134,197);fill-rule:nonzero;"/>
            </g>
            <g transform="matrix(4.16667,0,0,4.16667,-4.54747e-13,-7.95808e-13)">
                <path d="M314.006,385.396L292.687,373.007L300.984,368.217L322.303,380.606L314.006,385.396Z" style="fill:rgb(103,152,209);fill-rule:nonzero;"/>
            </g>
        </g>
    </g>
</svg>
